<svg xmlns="http://www.w3.org/2000/svg" version="1.1" xmlns:xlink="http://www.w3.org/1999/xlink" xmlns:svgjs="http://svgjs.dev/svgjs" width="1000" height="623" viewBox="0 0 1000 623"><g transform="matrix(1,0,0,1,-0.6060606060606233,0.2522267206477409)"><svg viewBox="0 0 396 247" data-background-color="#471aa0" preserveAspectRatio="xMidYMid meet" height="623" width="1000" xmlns="http://www.w3.org/2000/svg" xmlns:xlink="http://www.w3.org/1999/xlink"><g id="tight-bounds" transform="matrix(1,0,0,1,0.2400000000000091,-0.09999999999999432)"><svg viewBox="0 0 395.52 247.2" height="247.2" width="395.52"><g><svg></svg></g><g><svg viewBox="0 0 395.52 247.2" height="247.2" width="395.52"><g transform="matrix(1,0,0,1,75.54432,101.3849246541555)"><svg viewBox="0 0 244.43135999999998 44.430150691689" height="44.430150691689" width="244.43135999999998"><g><svg viewBox="0 0 244.43135999999998 44.430150691689" height="44.430150691689" width="244.43135999999998"><g><svg viewBox="0 0 244.43135999999998 44.430150691689" height="44.430150691689" width="244.43135999999998"><g><svg viewBox="0 0 244.43135999999998 44.430150691689" height="44.430150691689" width="244.43135999999998"><g id="textblocktransform"><svg viewBox="0 0 244.43135999999998 44.430150691689" height="44.430150691689" width="244.43135999999998" id="textblock"><g><svg viewBox="0 0 244.43135999999998 44.430150691689" height="44.430150691689" width="244.43135999999998"><g transform="matrix(1,0,0,1,0,0)"><svg width="244.43135999999998" viewBox="1.350000023841858 -32.849998474121094 186.489990234375 33.89999771118164" height="44.430150691689" data-palette-color="#ffffff"><path d="M1.35 0.55L1.75-3.35Q3.75-3.75 4.48-4.65 5.2-5.55 5.2-7.75L5.2-7.75 5.25-25.8Q5.25-27.4 4.95-27.95 4.65-28.5 3.75-28.5L3.75-28.5Q3.25-28.5 2.85-28.45 2.45-28.4 2.3-28.4L2.3-28.4 1.85-28.95 2.3-32.35Q3.3-32.3 6.25-32.25 9.2-32.2 12.5-32.2L12.5-32.2Q22.45-32.2 26.55-32.8L26.55-32.8 27.05-32.15Q26.9-31.3 26.58-28.4 26.25-25.5 26.1-22.65L26.1-22.65 20.55-22.3Q20.55-22.5 20.6-23.1 20.65-23.7 20.65-24.25L20.65-24.25Q20.65-25.55 20.3-26.18 19.95-26.8 18.98-27.03 18-27.25 16-27.25L16-27.25Q14.55-27.25 14.15-27 13.75-26.75 13.75-25.75L13.75-25.75 13.4-18 17.85-17.95Q18.75-17.95 20.63-18.1 22.5-18.25 23.1-18.3L23.1-18.3 23.55-17.75 22.85-12.85Q22.25-12.9 20.55-12.95 18.85-13 17-13L17-13Q15.75-13 13.2-12.7L13.2-12.7 13.1-7.8Q13.1-5.95 13.53-5.3 13.95-4.65 15.25-4.65L15.25-4.65Q16.1-4.65 17.07-4.8 18.05-4.95 18.35-5L18.35-5 18.95-4.3 18.35 0.15Q17.45 0.15 15.08 0.08 12.7 0 10.4 0L10.4 0Q7.7 0 4.93 0.23 2.15 0.45 1.35 0.55L1.35 0.55ZM41.6 0.35L41.3-0.05 41.55-3.6Q43.25-3.75 43.95-3.9 44.65-4.05 44.9-4.35 45.15-4.65 45.15-5.35L45.15-5.35Q45.15-5.5 44.95-6.7L44.95-6.7 44.2-9.7Q41.6-9.8 39.95-9.8L39.95-9.8Q38.8-9.8 36.6-9.6L36.6-9.6 35.5-9.5 34.6-6.4Q34.35-5.3 34.35-5L34.35-5Q34.35-4.25 34.77-3.98 35.2-3.7 36.35-3.7L36.35-3.7 38.15-3.7 38.45-3.3 38.05 0.25Q37.3 0.2 34.92 0.13 32.55 0.05 30.6 0.05L30.6 0.05 24.3 0.1 24.65-3.65Q25.7-3.85 26.4-4.58 27.1-5.3 27.6-6.7L27.6-6.7 36.1-31.95 46.25-32.75 46.9-32.35Q47.65-29.4 49.97-20.45 52.3-11.5 53.65-7.05L53.65-7.05Q54.15-5.3 54.92-4.53 55.7-3.75 57.15-3.65L57.15-3.65 57.45-3.2 57.05 0.15Q56.35 0.15 54.47 0.1 52.6 0.05 50.55 0.05L50.55 0.05Q47.75 0.05 45.05 0.18 42.35 0.3 41.6 0.35L41.6 0.35ZM36.9-14.6L40-14.6Q40.25-14.6 43.25-14.75L43.25-14.75 40.85-24.85 40-24.85 36.9-14.6ZM82.84 0.8Q81 0.8 79.67-0.33 78.34-1.45 77.3-3.8L77.3-3.8 73.5-12.1 70.3-12.1 70.25-7.45Q70.25-5.7 70.47-4.98 70.69-4.25 71.39-4 72.09-3.75 73.8-3.7L73.8-3.7 74.05-3.35 73.55 0.2 66.19 0Q64.14 0 61.67 0.15 59.2 0.3 58.45 0.35L58.45 0.35 58.89-3.5Q60.89-3.8 61.59-4.67 62.3-5.55 62.3-7.65L62.3-7.65 62.34-26.15Q62.34-27.5 62.02-28 61.7-28.5 60.84-28.5L60.84-28.5Q60.3-28.5 59.8-28.45 59.3-28.4 59.14-28.4L59.14-28.4 58.74-28.85 59.24-32.3Q59.99-32.3 61.97-32.25 63.95-32.2 65.84-32.2L65.84-32.2Q68.09-32.2 70.64-32.3 73.19-32.4 74.19-32.45L74.19-32.45Q80.39-32.45 83.62-30.2 86.84-27.95 86.84-23.55L86.84-23.55Q86.84-20.6 85.19-18.18 83.55-15.75 80.44-14.05L80.44-14.05 84.25-7.8Q85.59-5.55 86.87-4.5 88.14-3.45 89.5-3.45L89.5-3.45 89.94-2.8 89.55 0.25 82.84 0.8ZM74.64-16.8Q76.25-17.55 77.32-18.8 78.39-20.05 78.39-22.55L78.39-22.55Q78.39-25.05 76.75-26.25 75.09-27.45 71.69-27.45L71.69-27.45Q71.19-27.45 71.05-27.25 70.89-27.05 70.84-26.35L70.84-26.35Q70.55-22.05 70.44-17.3L70.44-17.3 74.64-16.8ZM92.09 0.3L90.59-2.2 107.64-27.9 102.34-27.45Q100.19-27.15 99.14-26.58 98.09-26 97.64-24.85 97.19-23.7 97.04-21.35L97.04-21.35 91.94-21Q92.04-22.1 92.37-25.78 92.69-29.45 92.74-32.3L92.74-32.3 93.29-32.85 102.24-32.3 117.69-32.2 118.74-29.85Q110.49-18.85 101.29-4.4L101.29-4.4 107.99-5.05Q110.44-5.35 111.72-7.08 112.99-8.8 113.49-12.5L113.49-12.5 118.59-12.9Q118.49-12.35 118.27-10.55 118.04-8.75 117.74-5.9 117.44-3.05 117.39-0.85L117.39-0.85 116.44 0.15 95.99-0.15 92.09 0.3ZM136.19 0.35L135.89-0.05 136.14-3.6Q137.84-3.75 138.54-3.9 139.24-4.05 139.49-4.35 139.74-4.65 139.74-5.35L139.74-5.35Q139.74-5.5 139.54-6.7L139.54-6.7 138.79-9.7Q136.19-9.8 134.54-9.8L134.54-9.8Q133.39-9.8 131.19-9.6L131.19-9.6 130.09-9.5 129.19-6.4Q128.94-5.3 128.94-5L128.94-5Q128.94-4.25 129.37-3.98 129.79-3.7 130.94-3.7L130.94-3.7 132.74-3.7 133.04-3.3 132.64 0.25Q131.89 0.2 129.52 0.13 127.14 0.05 125.19 0.05L125.19 0.05 118.89 0.1 119.24-3.65Q120.29-3.85 120.99-4.58 121.69-5.3 122.19-6.7L122.19-6.7 130.69-31.95 140.84-32.75 141.49-32.35Q142.24-29.4 144.56-20.45 146.89-11.5 148.24-7.05L148.24-7.05Q148.74-5.3 149.52-4.53 150.29-3.75 151.74-3.65L151.74-3.65 152.04-3.2 151.64 0.15Q150.94 0.15 149.06 0.1 147.19 0.05 145.14 0.05L145.14 0.05Q142.34 0.05 139.64 0.18 136.94 0.3 136.19 0.35L136.19 0.35ZM131.49-14.6L134.59-14.6Q134.84-14.6 137.84-14.75L137.84-14.75 135.44-24.85 134.59-24.85 131.49-14.6ZM176.89 1.05Q172.59-5.9 168.86-11.55 165.14-17.2 164.09-18.75L164.09-18.75 163.49-18.75 163.54-6.05Q163.54-4.7 163.94-4.17 164.34-3.65 165.34-3.65L165.34-3.65Q165.89-3.65 166.49-3.73 167.09-3.8 167.29-3.8L167.29-3.8 167.64-3.45 167.14 0.2Q166.34 0.15 164.26 0.08 162.19 0 160.19 0L160.19 0Q158.29 0 156.16 0.18 154.04 0.35 153.39 0.4L153.39 0.4 153.84-3.45Q155.34-3.65 156.01-4.38 156.69-5.1 156.74-6.6L156.74-6.6 157.34-25.35Q157.34-26.5 157.04-27.1 156.74-27.7 155.91-28 155.09-28.3 153.44-28.5L153.44-28.5 152.94-29.05 153.29-32.45Q153.89-32.4 155.89-32.3 157.89-32.2 159.74-32.2L159.74-32.2Q161.24-32.2 162.99-32.27 164.74-32.35 165.24-32.4L165.24-32.4Q168.79-26.45 172.89-20.08 176.99-13.7 176.99-13.8L176.99-13.8 177.59-13.8 177.49-26.3Q177.44-27.55 177.06-28 176.69-28.45 175.84-28.45L175.84-28.45 174.19-28.45 173.94-28.9 174.29-32.4Q175.09-32.35 177.21-32.27 179.34-32.2 181.49-32.2L181.49-32.2Q183.14-32.2 185.16-32.27 187.19-32.35 187.84-32.4L187.84-32.4 187.59-28.6Q185.94-28.4 185.26-27.68 184.59-26.95 184.54-25.45L184.54-25.45 183.89 0.4 176.89 1.05Z" opacity="1" transform="matrix(1,0,0,1,0,0)" fill="#ffffff" class="wordmark-text-0" data-fill-palette-color="primary" id="text-0"></path></svg></g></svg></g></svg></g></svg></g></svg></g></svg></g></svg></g><g><path d="M0 123.6c0-68.262 55.338-123.6 123.6-123.6 58.825 0 108.052 41.094 120.539 96.14l-2.056 0c-12.449-53.931-60.771-94.137-118.483-94.137-67.156 0-121.597 54.441-121.597 121.597 0 67.156 54.441 121.597 121.597 121.597 57.713 0 106.035-40.207 118.483-94.137h2.056c-12.487 55.046-61.714 96.14-120.539 96.14-68.262 0-123.6-55.338-123.6-123.6z" fill="#ffffff" stroke="transparent" data-fill-palette-color="tertiary"></path></g></svg></g><defs></defs></svg><rect width="395.52" height="247.2" fill="none" stroke="none" visibility="hidden"></rect></g></svg></g></svg>