<svg xmlns="http://www.w3.org/2000/svg" version="1.1" xmlns:xlink="http://www.w3.org/1999/xlink" xmlns:svgjs="http://svgjs.dev/svgjs" width="1000" height="1125" viewBox="0 0 1000 1125"><g transform="matrix(1,0,0,1,1.7053025658242404e-13,0)"><svg viewBox="0 0 320 360" data-background-color="#ffffff" preserveAspectRatio="xMidYMid meet" height="1125" width="1000" xmlns="http://www.w3.org/2000/svg" xmlns:xlink="http://www.w3.org/1999/xlink"><g id="tight-bounds" transform="matrix(1,0,0,1,0,0)"><svg viewBox="0 0 320 360" height="360" width="320"><g><svg></svg></g><g><svg viewBox="0 0 320 360" height="360" width="320"><g><path xmlns="http://www.w3.org/2000/svg" d="M20.961 227.22l3.726 4.658-1.863-6.056c-0.466-2.795-3.726 0.466-1.863 1.398M25.153 224.425c1.397 2.329 2.795 4.658 2.795 6.987 0 3.261 2.795 4.658 5.123 5.589-3.261-3.726-5.124-13.974-7.918-12.576M204.017 26.929c7.918 0 15.371-0.932 23.756 0.931 20.495 5.124 37.729 15.371 49.374 29.811l32.606 52.169c1.397 13.042 4.192 27.482 3.726 43.319 3.261 0 2.795-4.658 6.521-5.59-3.726 9.316-5.59 20.961-6.521 34.469-2.329-7.453 0-18.632 0.466-24.687-3.261 5.124-5.124 1.397-5.124-0.932 0.466-3.726-1.397-3.261-2.795-4.658-5.124-4.658-8.384-9.782-12.11-17.7 2.329-6.055 2.795-14.905-4.658-19.563-2.329-1.397-5.124-3.726-6.521-7.453-1.863-5.124-5.124-11.179-4.193-19.097 0.466-2.329-6.987 5.124-11.179 1.863-18.166-12.576-36.332-27.016-58.224-39.127-11.645 0-20.029-4.192-24.221-9.316-3.726-4.658-0.932-10.713 4.658-11.179 3.261 0 6.987-0.932 9.782 0.932 0.466-1.863 2.329-4.192 4.657-4.192M157.904 16.215l0.932 0.466c4.658 0.932 6.987 7.453 12.11 5.124 0 3.261 0.466 6.521-0.466 8.85-1.397 3.726-5.59 3.726-8.85 3.726-31.208-1.863-49.374 11.179-68.471 22.358-5.124 3.261-10.713 5.59-14.906 9.782-20.029 18.632-41.921 35.866-47.045 70.335l-4.192 38.195c-0.466 4.192-5.124 8.384-4.192 13.508l3.26 22.824c-3.261-3.261-5.124 0.932-4.192 2.795 0.466 1.397 2.329 6.055 5.124 1.863 3.726 6.987 7.453 20.495 12.576 26.55 15.837 18.632 36.332 35.4 53.101 52.169 4.192-0.932 7.453-0.932 8.384-3.727 1.397 2.795-1.397 5.59-3.726 6.056 7.453 4.658 15.837 8.85 27.016 9.781 14.44 0.932 27.948 3.261 40.524 6.522 6.521-1.863 13.042-2.795 20.029-3.261 2.329 0 3.726-3.726 6.521-4.658l0.466-4.658c2.795 4.192 2.329-1.397 0.466-4.192 3.261 2.795 4.192 5.124 5.589 6.987 0-1.397 3.726-6.521 3.727-0.466l0.931-6.055c1.397-0.932 1.863 5.124 3.261 0.931 1.397-4.192 4.192-0.932 6.987-2.329-0.932 1.863-0.466 5.59 2.794 3.261l3.727-3.261c2.329 5.59 6.055 3.261 7.918 2.329 20.495-13.042 40.99-28.413 60.553-43.784l-0.466 6.055 2.329-7.453c2.329 2.329 4.192 0.466 5.124-0.931 2.795-4.658 6.521-9.316 12.577-13.508-7.453 20.029-16.303 35.866-27.482 48.908l-4.658 5.59c0 3.261-0.932 7.453-4.658 7.918-1.863 0.466-5.59-0.932-8.384 1.863-1.397 1.863 3.261 5.59-0.466 2.795-3.261-2.329-6.521 0-10.248 0.932-2.795 0.932 1.863 3.726 2.795 5.589 0.932 1.863 1.863 3.726 1.398 6.056l-5.124-5.59c-6.055 3.261-9.782 9.316-14.906 13.974-2.329 1.863-1.397 5.124-1.397 7.918-3.261 0-6.987-0.932-8.85 0.932-1.397 1.863-0.932 4.658-0.932 7.453-4.658-0.466-5.124-7.453-9.315-6.056-4.192 0.932-8.85 1.397-12.577 3.727 2.795 5.59-4.658 2.329-3.726 3.26-6.987-4.192-13.042-7.453-20.495-4.658-15.837-5.124-35.4-2.795-49.84-0.931 0-2.329 0.466-4.658-0.466-5.124-0.932 2.329-3.726 1.397-3.26 1.397-8.85-6.055-17.7-9.782-27.016-14.905-8.384 0.932-16.303-3.261-18.632-5.59-6.521-6.055-13.974-2.795-20.029-4.192-13.042-3.261-17.7-16.769-19.098-26.084-0.932-4.658-4.658-6.521-6.055-6.056-6.055-19.563-15.371-37.263-22.824-55.429-1.863-4.658-1.397-9.316-1.397-14.44 2.329 0.932 4.658 0.466 4.192-2.794-2.329-15.371-7.918-27.016-13.974-38.195 3.261-15.837 3.726-34.469 11.179-48.443 6.521-12.576 18.632-19.098 27.016-29.811 2.795-3.726 2.795-8.85 5.59-12.11 9.316-9.316 18.632-19.098 28.879-27.482 4.658-3.726 10.247 0 17.234-1.397 2.329-8.384 11.645-15.837 20.495-13.508 3.726 0.932 11.179-8.85 13.508-9.782 3.726-1.397 1.863 3.726 1.863 6.987 8.85-6.987 20.961-10.713 32.14-14.906" fill="#ee3e38" fill-rule="nonzero" stroke="none" stroke-width="1" stroke-linecap="butt" stroke-linejoin="miter" stroke-miterlimit="10" stroke-dasharray="" stroke-dashoffset="0" font-family="none" font-weight="none" font-size="none" text-anchor="none" style="mix-blend-mode: normal" data-fill-palette-color="tertiary"></path></g><g transform="matrix(1,0,0,1,64,157.87175043327557)"><svg viewBox="0 0 192 44.25649913344888" height="44.25649913344888" width="192"><g><svg viewBox="0 0 192 44.25649913344888" height="44.25649913344888" width="192"><g><svg viewBox="0 0 192 44.25649913344888" height="44.25649913344888" width="192"><g><svg viewBox="0 0 192 44.25649913344888" height="44.25649913344888" width="192"><g id="textblocktransform"><svg viewBox="0 0 192 44.25649913344888" height="44.25649913344888" width="192" id="textblock"><g><svg viewBox="0 0 192 44.25649913344888" height="44.25649913344888" width="192"><g transform="matrix(1,0,0,1,0,0)"><svg width="192" viewBox="1.5 -32.5 144.24000549316406 33.25" height="44.25649913344888" data-palette-color="#ee3e38"><path d="M2.25-32.5L25.1-32.5 25.15-30.8Q25.15-27.3 24.6-24.25L24.6-24.25 21.9-24.25 21.3-28.85 10.4-29.6 10.4-16.7 21.85-17.55 21.85-13.2 10.4-13.7 10.4-3.05 16.25-2.35 16.2 0 1.8 0 1.5-1.6 5.75-3.15 5.75-29.9 2.2-30.1 2.25-32.5ZM47.45-3.75L48.2-1.55 43.15 0.75Q42.4 0.65 41.25-0.43 40.1-1.5 39.6-2.7L39.6-2.7 33.95 0.7 32.75 0.75Q29.75 0.75 27.92-0.95 26.1-2.65 26.1-5.2L26.1-5.2Q26.1-8.6 29.6-10.55L29.6-10.55 39.35-10.8 39.35-15.95Q39.35-18.25 38.8-19.43 38.25-20.6 36.9-21.3L36.9-21.3Q33.85-21.2 31.25-20.45L31.25-20.45 30.85-15.25 28.2-15.05Q26.9-17.4 26.75-21.05L26.75-21.05Q28.95-22.3 32.65-23.48 36.35-24.65 37.9-24.65L37.9-24.65Q39.3-24.65 40.8-23.63 42.3-22.6 43.05-21.48 43.8-20.35 43.85-17.4L43.85-17.4 43.85-4.3Q43.85-3.3 45.15-3.3L45.15-3.3Q45.9-3.3 47.45-3.75L47.45-3.75ZM32.1-2.9L32.1-2.9Q35.05-2.8 39.35-4.75L39.35-4.75 39.35-8.2 36.85-8.35Q30.8-8.35 30.8-5.2L30.8-5.2Q30.8-3.7 32.1-2.9ZM68.5-23.15L68.5-23.15Q68.7-19.45 67.6-15.05L67.6-15.05 64.9-15.05 64.35-20.55Q60.3-18.3 57.5-14.6L57.5-14.6 57.5-3.3Q61.15-3.05 62.65-2.4L62.65-2.4 62.35 0 49.65 0 49.4-1.65 53.05-3 53.05-20.6 49.3-20.3 48.7-22.65Q52.05-24.1 55.5-24.2L55.5-24.2 57.5-22.45 57.5-17.9 62.75-23.5Q64.2-24.1 65.4-24.1L65.4-24.1Q67-24.1 68.5-23.15ZM89.59-7.35L92.14-7Q91.99-2.9 90.99 0.5L90.99 0.5 74.89-0.95 72.99 0.75 70.79-1.05 85.09-20.4 75.29-20.1 74.69-15.1 72.24-15.1Q71.69-17.45 71.69-20.85L71.69-20.85 71.79-23.4 88.79-23.4 90.34-24.5 92.04-23 78.04-4.05 88.54-3.55 89.59-7.35ZM116.74-3.75L117.49-1.55 112.44 0.75Q111.69 0.65 110.54-0.43 109.39-1.5 108.89-2.7L108.89-2.7 103.24 0.7 102.04 0.75Q99.04 0.75 97.22-0.95 95.39-2.65 95.39-5.2L95.39-5.2Q95.39-8.6 98.89-10.55L98.89-10.55 108.64-10.8 108.64-15.95Q108.64-18.25 108.09-19.43 107.54-20.6 106.19-21.3L106.19-21.3Q103.14-21.2 100.54-20.45L100.54-20.45 100.14-15.25 97.49-15.05Q96.19-17.4 96.04-21.05L96.04-21.05Q98.24-22.3 101.94-23.48 105.64-24.65 107.19-24.65L107.19-24.65Q108.59-24.65 110.09-23.63 111.59-22.6 112.34-21.48 113.09-20.35 113.14-17.4L113.14-17.4 113.14-4.3Q113.14-3.3 114.44-3.3L114.44-3.3Q115.19-3.3 116.74-3.75L116.74-3.75ZM101.39-2.9L101.39-2.9Q104.34-2.8 108.64-4.75L108.64-4.75 108.64-8.2 106.14-8.35Q100.09-8.35 100.09-5.2L100.09-5.2Q100.09-3.7 101.39-2.9ZM142.24-15.35L142.24-3.2Q144.79-2.85 145.74-2.4L145.74-2.4 145.44 0 135.19 0 134.94-1.65 137.79-2.75 137.79-14.8Q137.79-20.2 134.59-20.2L134.59-20.2Q131.69-20.2 126.79-16.45L126.79-16.45 126.79-3.15Q128.89-2.9 130.04-2.4L130.04-2.4 129.74 0 119.04 0 118.79-1.65 122.34-2.95 122.34-20.6 118.59-20.3 117.99-22.65Q121.34-24.1 124.79-24.2L124.79-24.2 126.79-22.45 126.79-19.15Q134.29-24.2 136.99-24.2L136.99-24.2Q138.44-23.95 139.91-22.73 141.39-21.5 141.81-20.2 142.24-18.9 142.24-15.35L142.24-15.35Z" opacity="1" transform="matrix(1,0,0,1,0,0)" fill="#ee3e38" class="wordmark-text-0" data-fill-palette-color="primary" id="text-0"></path></svg></g></svg></g></svg></g></svg></g><g></g></svg></g></svg></g></svg></g></svg></g><defs></defs></svg><rect width="320" height="360" fill="none" stroke="none" visibility="hidden"></rect></g></svg></g></svg>